<?xml version="1.0" standalone="no"?>
<!DOCTYPE svg PUBLIC "-//W3C//DTD SVG 20010904//EN"
 "http://www.w3.org/TR/2001/REC-SVG-20010904/DTD/svg10.dtd">
<svg version="1.0" xmlns="http://www.w3.org/2000/svg"
 width="260.000000pt" height="260.000000pt" viewBox="0 0 260.000000 260.000000"
 preserveAspectRatio="xMidYMid meet">
<metadata>
Created by potrace 1.14, written by Peter Selinger 2001-2017
</metadata>
<g transform="translate(0.000000,260.000000) scale(0.100000,-0.100000)"
fill="#000000" stroke="none">
<path d="M1255 2432 c-16 -10 -106 -58 -200 -107 -93 -48 -286 -150 -429 -227
-142 -76 -261 -138 -265 -138 -3 0 -23 -12 -44 -26 l-38 -25 6 -112 c32 -562
273 -1039 723 -1432 111 -98 265 -205 294 -205 47 0 272 173 429 329 367 368
565 805 594 1313 l6 107 -38 25 c-21 15 -41 26 -44 26 -4 0 -94 47 -201 103
-230 123 -342 183 -503 267 -66 34 -143 76 -171 91 -60 34 -78 35 -119 11z
m273 -243 c114 -62 234 -126 267 -144 33 -18 110 -59 170 -91 61 -32 135 -72
165 -89 l55 -31 -3 -80 c-11 -290 -120 -610 -298 -871 -80 -116 -134 -183
-237 -290 -98 -103 -321 -283 -348 -283 -12 0 -132 92 -214 165 -235 207 -421
457 -522 700 -13 33 -31 74 -39 92 -31 67 -82 302 -95 431 -6 73 -10 134 -8
135 4 4 242 132 409 220 58 31 184 99 280 151 96 52 183 95 193 96 10 0 112
-50 225 -111z"/>
<path d="M1265 2222 c-27 -17 -176 -96 -360 -192 -274 -143 -418 -221 -425
-231 -12 -17 10 -190 39 -316 54 -235 135 -412 288 -633 113 -163 437 -470
497 -470 25 0 183 127 291 235 191 190 331 399 423 630 52 133 102 346 109
465 l6 95 -44 22 c-24 12 -105 55 -179 94 -74 40 -162 86 -195 104 -33 17
-123 64 -200 105 -77 40 -153 82 -170 92 -37 22 -43 22 -80 0z m151 -499 c-3
-54 -11 -210 -16 -348 -6 -137 -13 -256 -15 -262 -3 -9 -29 -13 -85 -13 -56 0
-82 4 -85 13 -5 14 -35 578 -35 655 l0 52 121 0 122 0 -7 -97z m-52 -727 c37
-15 76 -82 76 -130 0 -45 -37 -106 -75 -122 -102 -42 -205 19 -205 121 0 109
101 174 204 131z"/>
</g>
</svg>
